<?xml version="1.0" encoding="utf-8"?>
<!-- Generator: Adobe Illustrator 24.1.1, SVG Export Plug-In . SVG Version: 6.00 Build 0)  -->
<svg version="1.1" id="Layer_1" xmlns="http://www.w3.org/2000/svg" xmlns:xlink="http://www.w3.org/1999/xlink" x="0px" y="0px"
	 viewBox="0 0 512 512" style="enable-background:new 0 0 512 512;" xml:space="preserve">
<style type="text/css">
	.st0{fill:#606060;}
</style>
<g>
	<path class="st0" d="M256,332.8c56.5,0,102.4-45.8,102.4-102.4v-128C358.4,45.8,312.5,0,256,0S153.6,45.8,153.6,102.4v128
		C153.6,287,199.4,332.8,256,332.8z"/>
	<path class="st0" d="M435.2,230.4c0-14.1-11.5-25.6-25.6-25.6c-14.1,0-25.6,11.5-25.6,25.6c0,70.7-57.3,128-128,128
		s-128-57.3-128-128c0-14.1-11.5-25.6-25.6-25.6s-25.6,11.5-25.6,25.6c0.1,89,65.5,164.4,153.6,177.1v53.3h-54
		c-12.6,0-22.8,10.2-22.8,22.8v5.6c0,12.6,10.2,22.8,22.8,22.8h159.2c12.6,0,22.8-10.2,22.8-22.8v-5.6c0-12.6-10.2-22.8-22.8-22.8
		h-54v-53.3C369.7,394.8,435.1,319.4,435.2,230.4z"/>
</g>
</svg>
