<?xml version="1.0" encoding="utf-8"?>
<!-- Generator: Adobe Illustrator 24.1.1, SVG Export Plug-In . SVG Version: 6.00 Build 0)  -->
<svg version="1.1" id="Layer_1" xmlns="http://www.w3.org/2000/svg" xmlns:xlink="http://www.w3.org/1999/xlink" x="0px" y="0px"
	 viewBox="0 0 512 512" style="enable-background:new 0 0 512 512;" xml:space="preserve">
<style type="text/css">
	.st0{fill:#606060;}
</style>
<g>
	<path class="st0" d="M348,274.7c7-14,10.6-29.3,10.8-44.9V101.5C358.2,44.8,311.7-0.6,255,0c-48.4,0.6-89.8,34.8-99.4,82.2"/>
	<path class="st0" d="M435.8,229.8c0-14.2-11.5-25.7-25.7-25.7c-14.2,0-25.7,11.5-25.7,25.7c-0.1,22.4-6.2,44.4-17.7,63.6l37.7,39
		C425.1,302.2,436,266.4,435.8,229.8z"/>
	<path class="st0" d="M256.2,332.4h4.1l-106.7-107v4.4C153.5,286.5,199.5,332.4,256.2,332.4z"/>
	<path class="st0" d="M479.6,442.5L69.1,32c-10.1-10.1-26.4-10.1-36.4,0s-10.1,26.4,0,36.4l410.5,410.5c10,10.1,26.2,10.1,36.3,0.2
		l0.2-0.2C489.4,468.9,489.1,452.7,479.6,442.5z"/>
	<path class="st0" d="M333.1,460.7h-51.3v-53.4c14.5-2,28.7-5.8,42.3-11.3l-41-41.1c-8.8,2.1-17.9,3.1-26.9,3.1
		c-70.8,0-128.3-57.4-128.3-128.3c0-14.2-11.5-25.7-25.7-25.7s-25.7,11.5-25.7,25.7c0.1,89.2,65.7,164.8,153.9,177.5v53.4h-51.3
		c-14.2,0-25.7,11.5-25.7,25.7c0,14.2,11.5,25.7,25.7,25.7h153.9c14.2,0,25.7-11.5,25.7-25.7C358.8,472.2,347.3,460.7,333.1,460.7z"
		/>
</g>
</svg>
