<svg width="14" height="15" viewBox="0 0 14 15" fill="none" xmlns="http://www.w3.org/2000/svg">
<path d="M10.5 5.1665C11.4665 5.1665 12.25 4.383 12.25 3.4165C12.25 2.45001 11.4665 1.6665 10.5 1.6665C9.5335 1.6665 8.75 2.45001 8.75 3.4165C8.75 4.383 9.5335 5.1665 10.5 5.1665Z" stroke="#6B7B86" stroke-linecap="round" stroke-linejoin="round"/>
<path d="M3.5 9.25C4.4665 9.25 5.25 8.4665 5.25 7.5C5.25 6.5335 4.4665 5.75 3.5 5.75C2.5335 5.75 1.75 6.5335 1.75 7.5C1.75 8.4665 2.5335 9.25 3.5 9.25Z" stroke="#6B7B86" stroke-linecap="round" stroke-linejoin="round"/>
<path d="M10.5 13.3335C11.4665 13.3335 12.25 12.55 12.25 11.5835C12.25 10.617 11.4665 9.8335 10.5 9.8335C9.5335 9.8335 8.75 10.617 8.75 11.5835C8.75 12.55 9.5335 13.3335 10.5 13.3335Z" stroke="#6B7B86" stroke-linecap="round" stroke-linejoin="round"/>
<path d="M5.01086 8.38086L8.99503 10.7025" stroke="#6B7B86" stroke-linecap="round" stroke-linejoin="round"/>
<path d="M8.9892 4.29736L5.01086 6.61903" stroke="#6B7B86" stroke-linecap="round" stroke-linejoin="round"/>
</svg>
