<svg xmlns="http://www.w3.org/2000/svg" width="80" height="41.6" viewBox="0 0 80 41.6"><defs><style>.a{fill:#fff;}</style></defs><g transform="translate(-7.5 -24.3)"><path class="a" d="M10.063,36.781A1.845,1.845,0,0,1,8.159,35c0-6.873,5.97-12.444,13.333-12.444S34.825,28.13,34.825,35a1.845,1.845,0,0,1-1.9,1.778Zm3.809-24.889a7.378,7.378,0,0,1,7.619-7.111,7.379,7.379,0,0,1,7.62,7.111A7.379,7.379,0,0,1,21.491,19,7.379,7.379,0,0,1,13.872,11.892Z" transform="translate(-0.659 29.119)"/><path class="a" d="M10.063,36.781A1.845,1.845,0,0,1,8.159,35c0-6.873,5.97-12.444,13.333-12.444S34.825,28.13,34.825,35a1.845,1.845,0,0,1-1.9,1.778Zm3.809-24.889a7.378,7.378,0,0,1,7.619-7.111,7.379,7.379,0,0,1,7.62,7.111A7.379,7.379,0,0,1,21.491,19,7.379,7.379,0,0,1,13.872,11.892Z" transform="translate(26.008 19.519)"/><path class="a" d="M10.063,36.781A1.845,1.845,0,0,1,8.159,35c0-6.873,5.97-12.444,13.333-12.444S34.825,28.13,34.825,35a1.845,1.845,0,0,1-1.9,1.778Zm3.809-24.889a7.378,7.378,0,0,1,7.619-7.111,7.379,7.379,0,0,1,7.62,7.111A7.379,7.379,0,0,1,21.491,19,7.379,7.379,0,0,1,13.872,11.892Z" transform="translate(52.675 29.119)"/></g></svg>