<svg xmlns="http://www.w3.org/2000/svg" width="30" height="16" viewBox="0 0 30 16" fill="none">
<rect y="0.5" width="30" height="15" rx="6" fill="#FFD600"/>
<path d="M8.31 11.5V5.54H6.35V4.5H11.41V5.54H9.39V11.5H8.31ZM13.7456 11.6C13.2323 11.6 12.7723 11.4833 12.3656 11.25C11.9656 11.01 11.649 10.6867 11.4156 10.28C11.1823 9.86667 11.0656 9.39667 11.0656 8.87C11.0656 8.34333 11.1823 7.87667 11.4156 7.47C11.649 7.05667 11.9656 6.73333 12.3656 6.5C12.7723 6.26 13.2323 6.14 13.7456 6.14C14.2523 6.14 14.7056 6.26 15.1056 6.5C15.5123 6.73333 15.8323 7.05667 16.0656 7.47C16.299 7.87667 16.4156 8.34333 16.4156 8.87C16.4156 9.39667 16.299 9.86667 16.0656 10.28C15.8323 10.6867 15.5123 11.01 15.1056 11.25C14.7056 11.4833 14.2523 11.6 13.7456 11.6ZM13.7456 10.66C14.059 10.66 14.339 10.5833 14.5856 10.43C14.8323 10.27 15.0256 10.0567 15.1656 9.79C15.3056 9.51667 15.3723 9.21 15.3656 8.87C15.3723 8.52333 15.3056 8.21667 15.1656 7.95C15.0256 7.67667 14.8323 7.46333 14.5856 7.31C14.339 7.15667 14.059 7.08 13.7456 7.08C13.4323 7.08 13.149 7.16 12.8956 7.32C12.649 7.47333 12.4556 7.68667 12.3156 7.96C12.1756 8.22667 12.109 8.53 12.1156 8.87C12.109 9.21 12.1756 9.51667 12.3156 9.79C12.4556 10.0567 12.649 10.27 12.8956 10.43C13.149 10.5833 13.4323 10.66 13.7456 10.66ZM17.438 13.7V6.25H18.478V7.45L18.318 7.36C18.358 7.16 18.4713 6.97 18.658 6.79C18.8446 6.60333 19.0713 6.45333 19.338 6.34C19.6113 6.22 19.8913 6.16 20.178 6.16C20.6513 6.16 21.0713 6.27667 21.438 6.51C21.8046 6.74333 22.0946 7.06333 22.308 7.47C22.5213 7.87667 22.628 8.34333 22.628 8.87C22.628 9.39 22.5213 9.85667 22.308 10.27C22.1013 10.6767 21.8146 11 21.448 11.24C21.0813 11.4733 20.668 11.59 20.208 11.59C19.9013 11.59 19.6046 11.53 19.318 11.41C19.0313 11.2833 18.788 11.1233 18.588 10.93C18.388 10.7367 18.2646 10.5367 18.218 10.33L18.478 10.19V13.7H17.438ZM20.038 10.64C20.3446 10.64 20.618 10.5633 20.858 10.41C21.098 10.2567 21.288 10.0467 21.428 9.78C21.568 9.51333 21.638 9.21 21.638 8.87C21.638 8.53 21.568 8.23 21.428 7.97C21.2946 7.70333 21.108 7.49333 20.868 7.34C20.628 7.18667 20.3513 7.11 20.038 7.11C19.7246 7.11 19.448 7.18667 19.208 7.34C18.968 7.48667 18.778 7.69333 18.638 7.96C18.498 8.22667 18.428 8.53 18.428 8.87C18.428 9.21 18.498 9.51333 18.638 9.78C18.778 10.0467 18.968 10.2567 19.208 10.41C19.448 10.5633 19.7246 10.64 20.038 10.64Z" fill="black"/>
</svg>