<?xml version="1.0" encoding="utf-8"?>
<!-- Svg Vector Icons : http://www.onlinewebfonts.com/icon -->
<!DOCTYPE svg PUBLIC "-//W3C//DTD SVG 1.1//EN" "http://www.w3.org/Graphics/SVG/1.1/DTD/svg11.dtd">
<svg version="1.1" xmlns="http://www.w3.org/2000/svg" xmlns:xlink="http://www.w3.org/1999/xlink" x="0px" y="0px" viewBox="0 0 1000 1000" enable-background="new 0 0 1000 1000" xml:space="preserve">
<metadata> Svg Vector Icons : http://www.onlinewebfonts.com/icon </metadata>
<g><path d="M249.4,333.1c86.9,0,157.4,70.5,157.4,157.4c0,86.9-70.5,157.4-157.4,157.4S92,577.4,92,490.5C92,403.6,162.4,333.1,249.4,333.1z"/><path d="M681.7,10c62.7,0,113.4,50.8,113.4,113.4s-50.8,113.4-113.4,113.4s-113.4-50.8-113.4-113.4C568.3,60.8,619.1,10,681.7,10z"/><path d="M294,412.2l389.1-336l42.3,49l-389.1,336L294,412.2z"/><path d="M283.9,575.6l308,227.2l28.7-59.2L322.3,523.5L283.9,575.6z"/><path d="M879.5,990c-7.9,0-15-3.2-20.1-8.4l0,0L775,897.3l-84.4,84.4l0,0c-5.1,5.1-12.3,8.3-20.1,8.3c-15.7,0-28.5-12.8-28.5-28.5c0-7.9,3.2-15,8.4-20.2l0,0l84.3-84.4l-84.3-84.4l0,0c-5.2-5.1-8.4-12.3-8.4-20.1c0-15.7,12.8-28.5,28.5-28.5c7.9,0,15,3.2,20.1,8.4l0,0l84.4,84.4l84.4-84.4l0,0c5.2-5.2,12.3-8.4,20.1-8.4c15.7,0,28.5,12.8,28.5,28.5c0,7.9-3.2,15-8.4,20.1l0,0L815.3,857l84.4,84.4l0,0c5.2,5.2,8.4,12.3,8.4,20.2C908,977.2,895.2,990,879.5,990L879.5,990z"/></g>
</svg>