<svg xmlns="http://www.w3.org/2000/svg" width="22" height="24" viewBox="0 0 22 24" fill="none">
<g clip-path="url(#clip0_468_550)">
<path d="M5.49192 1.6H20.3999L21.9999 0H5.49192C5.07172 0.00422296 4.6704 0.175139 4.37618 0.475173C4.08196 0.775206 3.91893 1.1798 3.92292 1.6V7.08H5.49192V1.6Z" fill="#F0F4F7"/>
<path d="M20.4 1.59891V18.3989H14.121V11.1989C14.125 10.7787 13.9619 10.3741 13.6677 10.0741C13.3735 9.77405 12.9722 9.60313 12.552 9.59891H1.56896C1.36081 9.601 1.15511 9.64407 0.963612 9.72566C0.77211 9.80725 0.598555 9.92576 0.452858 10.0744C0.30716 10.2231 0.192174 10.399 0.114466 10.5921C0.0367571 10.7852 -0.00215228 10.9918 -4.04957e-05 11.1999V22.3999C-0.00403857 22.8201 0.158994 23.2247 0.453214 23.5247C0.747435 23.8248 1.14876 23.9957 1.56896 23.9999H12.552C12.9722 23.9957 13.3735 23.8248 13.6677 23.5247C13.9619 23.2247 14.125 22.8201 14.121 22.3999V19.9999H20.4C20.8202 19.9957 21.2215 19.8248 21.5157 19.5247C21.8099 19.2247 21.973 18.8201 21.969 18.3999L22 0.00390625L20.4 1.59891ZM1.56896 22.3999V11.1999H12.552V22.3999H1.56896Z" fill="#F0F4F7"/>
<path d="M4.31494 14H9.80694" stroke="#F0F4F7"/>
<path d="M8.23694 4.17603H14.5129" stroke="#F0F4F7"/>
<path d="M4.31494 17.2H9.80694" stroke="#F0F4F7"/>
<path d="M8.23694 7.37598H16.0819" stroke="#F0F4F7"/>
<path d="M4.31494 20.3999H7.45294" stroke="#F0F4F7"/>
</g>
<defs>
<clipPath id="clip0_468_550">
<rect width="22" height="24" fill="white"/>
</clipPath>
</defs>
</svg>