<svg xmlns="http://www.w3.org/2000/svg" width="22" height="24" viewBox="0 0 22 24" fill="none">
<g clip-path="url(#clip0_468_563)">
<path d="M14.96 24.0001C13.6114 23.9647 12.3031 23.5324 11.1988 22.7573C10.0945 21.9822 9.24336 20.8987 8.75172 19.6423C8.26009 18.3859 8.14983 17.0125 8.43475 15.6938C8.71967 14.375 9.3871 13.1696 10.3536 12.2283C11.32 11.2869 12.5426 10.6515 13.8684 10.4014C15.1941 10.1513 16.5642 10.2977 17.8072 10.8222C19.0502 11.3468 20.1109 12.2262 20.8567 13.3505C21.6025 14.4747 22.0002 15.794 22 17.1431C21.9755 18.9859 21.2201 20.7435 19.8999 22.0294C18.5797 23.3153 16.8028 24.0241 14.96 24.0001ZM14.96 12.0001C13.9485 12.0267 12.9673 12.3509 12.1391 12.9322C11.3109 13.5135 10.6726 14.3261 10.3038 15.2684C9.93509 16.2107 9.85238 17.2408 10.0661 18.2298C10.2797 19.2188 10.7803 20.1229 11.5051 20.8289C12.2299 21.5349 13.1468 22.0115 14.1411 22.1991C15.1354 22.3867 16.163 22.277 17.0952 21.8836C18.0275 21.4902 18.8231 20.8307 19.3824 19.9875C19.9418 19.1444 20.2401 18.155 20.24 17.1431C20.2216 15.761 19.655 14.4428 18.6649 13.4784C17.6747 12.514 16.3421 11.9822 14.96 12.0001Z" fill="#F0F4F7"/>
<path d="M16.359 19.7141L14.08 17.4941V13.7141H15.84V16.7911L17.6 18.5051L16.359 19.7141Z" fill="#F0F4F7"/>
<path d="M21.12 3.429C21.1137 2.96839 20.9248 2.52913 20.5947 2.20774C20.2647 1.88635 19.8206 1.70913 19.36 1.715H15.84V0H14.08V1.714H7.04V0H5.28V1.714H1.76C1.29921 1.70813 0.854958 1.88549 0.524914 2.2071C0.194871 2.5287 0.00606093 2.96822 0 3.429V20.571C0.00632368 21.0316 0.195249 21.4709 0.525264 21.7923C0.855278 22.1136 1.29939 22.2909 1.76 22.285H5.28V20.571H1.76V3.429H5.28V5.143H7.04V3.429H14.08V5.143H15.84V3.429H19.36V8.572H21.12V3.429Z" fill="#F0F4F7"/>
</g>
<defs>
<clipPath id="clip0_468_563">
<rect width="22" height="24" fill="white"/>
</clipPath>
</defs>
</svg>