<svg width="18" height="18" viewBox="0 0 18 18" fill="none" xmlns="http://www.w3.org/2000/svg">
<path fill-rule="evenodd" clip-rule="evenodd" d="M15.1127 0.373346L7.6607 8.19245C7.24087 8.63231 7.24087 9.36662 7.6607 9.8083L15.1127 17.6256C15.5697 18.1052 16.2911 18.1052 16.7482 17.6256C17.2316 17.118 17.2316 16.2726 16.7482 15.7641L10.5069 9.21579C10.3937 9.09747 10.3937 8.90147 10.5069 8.78315L16.7482 2.23486C17.2316 1.72726 17.2316 0.881854 16.7482 0.373346C16.5192 0.134898 16.225 0.0147705 15.9308 0.0147705C15.6358 0.0147705 15.3416 0.134898 15.1127 0.373346Z" fill="none"/>
<path fill-rule="evenodd" clip-rule="evenodd" d="M1.99893 17.6179L9.47025 9.8214C9.89117 9.3828 9.89299 8.6485 9.47426 8.20556L2.04173 0.365746C1.5859 -0.11524 0.864426 -0.117422 0.40622 0.360799C-0.0785014 0.866939 -0.0805987 1.71234 0.401602 2.22231L6.62656 8.78945C6.73949 8.90812 6.739 9.10411 6.62549 9.22209L0.368037 15.7515C-0.116684 16.2576 -0.118781 17.103 0.363419 17.613C0.591748 17.8521 0.885659 17.9731 1.17987 17.974C1.47491 17.9749 1.76941 17.8557 1.99893 17.6179Z" fill="none"/>
</svg>
