<svg xmlns="http://www.w3.org/2000/svg" width="36" height="36" viewBox="0 0 36 36" fill="none">
<rect width="36" height="36" rx="10" fill="#F0F4F7"/>
<path opacity="0.4" d="M26.0399 12.8202L20.2799 8.79018C18.7099 7.69018 16.2999 7.75018 14.7899 8.92018L9.77993 12.8302C8.77993 13.6102 7.98993 15.2102 7.98993 16.4702V23.3702C7.98993 25.9202 10.0599 28.0002 12.6099 28.0002H23.3899C25.9399 28.0002 28.0099 25.9302 28.0099 23.3802V16.6002C28.0099 15.2502 27.1399 13.5902 26.0399 12.8202Z" fill="#6B7B86"/>
<path d="M18 24.75C17.59 24.75 17.25 24.41 17.25 24V21C17.25 20.59 17.59 20.25 18 20.25C18.41 20.25 18.75 20.59 18.75 21V24C18.75 24.41 18.41 24.75 18 24.75Z" fill="#6B7B86"/>
</svg>