<svg xmlns="http://www.w3.org/2000/svg" width="36" height="36" viewBox="0 0 36 36" fill="none">
<rect width="36" height="36" rx="10" fill="#F0F4F7"/>
<path d="M20.4999 16.75H14.4999C14.0899 16.75 13.7499 16.41 13.7499 16C13.7499 15.59 14.0899 15.25 14.4999 15.25H20.4999C20.9099 15.25 21.2499 15.59 21.2499 16C21.2499 16.41 20.9099 16.75 20.4999 16.75Z" fill="#6B7B86"/>
<path d="M17.4999 19.75H14.4999C14.0899 19.75 13.7499 19.41 13.7499 19C13.7499 18.59 14.0899 18.25 14.4999 18.25H17.4999C17.9099 18.25 18.2499 18.59 18.2499 19C18.2499 19.41 17.9099 19.75 17.4999 19.75Z" fill="#6B7B86"/>
<path opacity="0.4" d="M17.5001 27C22.7468 27 27.0001 22.7467 27.0001 17.5C27.0001 12.2533 22.7468 8 17.5001 8C12.2534 8 8.00012 12.2533 8.00012 17.5C8.00012 22.7467 12.2534 27 17.5001 27Z" fill="#6B7B86"/>
<path d="M27.3003 28.0001C27.1203 28.0001 26.9403 27.9301 26.8103 27.8001L24.9503 25.9401C24.6803 25.6701 24.6803 25.2301 24.9503 24.9501C25.2203 24.6801 25.6603 24.6801 25.9403 24.9501L27.8003 26.8101C28.0703 27.0801 28.0703 27.5201 27.8003 27.8001C27.6603 27.9301 27.4803 28.0001 27.3003 28.0001Z" fill="#6B7B86"/>
</svg>