<svg xmlns="http://www.w3.org/2000/svg" width="36" height="36" viewBox="0 0 36 36" fill="none">
<rect width="36" height="36" rx="10" fill="#0a7bba" fill-opacity="0.1"/>
<path d="M20.4999 16.75H14.4999C14.0899 16.75 13.7499 16.41 13.7499 16C13.7499 15.59 14.0899 15.25 14.4999 15.25H20.4999C20.9099 15.25 21.2499 15.59 21.2499 16C21.2499 16.41 20.9099 16.75 20.4999 16.75Z" fill="#0a7bba"/>
<path d="M17.4999 19.75H14.4999C14.0899 19.75 13.7499 19.41 13.7499 19C13.7499 18.59 14.0899 18.25 14.4999 18.25H17.4999C17.9099 18.25 18.2499 18.59 18.2499 19C18.2499 19.41 17.9099 19.75 17.4999 19.75Z" fill="#0a7bba"/>
<path opacity="0.4" d="M17.5001 27C22.7468 27 27.0001 22.7467 27.0001 17.5C27.0001 12.2533 22.7468 8 17.5001 8C12.2534 8 8.00006 12.2533 8.00006 17.5C8.00006 22.7467 12.2534 27 17.5001 27Z" fill="#0a7bba"/>
<path d="M27.3002 28.0003C27.1202 28.0003 26.9402 27.9303 26.8102 27.8003L24.9502 25.9403C24.6802 25.6703 24.6802 25.2303 24.9502 24.9503C25.2202 24.6803 25.6602 24.6803 25.9402 24.9503L27.8002 26.8103C28.0702 27.0803 28.0702 27.5203 27.8002 27.8003C27.6602 27.9303 27.4802 28.0003 27.3002 28.0003Z" fill="#0a7bba"/>
</svg>