<svg xmlns="http://www.w3.org/2000/svg" width="36" height="36" viewBox="0 0 36 36" fill="none">
<rect width="36" height="36" rx="10" fill="#1EB100" fill-opacity="0.1"/>
<path opacity="0.4" d="M26.3999 22.3303C26.1199 23.0803 25.5299 23.6503 24.7599 23.9103C23.6799 24.2703 22.5699 24.5403 21.4499 24.7303C21.3399 24.7503 21.2299 24.7703 21.1199 24.7803C20.9399 24.8103 20.7599 24.8303 20.5799 24.8503C20.3599 24.8803 20.1299 24.9003 19.8999 24.9203C19.2699 24.9703 18.6499 25.0003 18.0199 25.0003C17.3799 25.0003 16.7399 24.9703 16.1099 24.9103C15.8399 24.8903 15.5799 24.8603 15.3199 24.8203C15.1699 24.8003 15.0199 24.7803 14.8799 24.7603C14.7699 24.7403 14.6599 24.7303 14.5499 24.7103C13.4399 24.5303 12.3399 24.2603 11.2699 23.9003C10.4699 23.6303 9.8599 23.0603 9.5899 22.3303C9.3199 21.6103 9.4199 20.7703 9.8499 20.0503L10.9799 18.1703C11.2199 17.7603 11.4399 16.9703 11.4399 16.4903V14.6303C11.4399 11.0003 14.3899 8.05029 18.0199 8.05029C21.6399 8.05029 24.5899 11.0003 24.5899 14.6303V16.4903C24.5899 16.9703 24.8099 17.7603 25.0599 18.1703L26.1899 20.0503C26.5999 20.7503 26.6799 21.5703 26.3999 22.3303Z" fill="#1EB100"/>
<path d="M17.9999 16.7601C17.5799 16.7601 17.2399 16.4201 17.2399 16.0001V12.9001C17.2399 12.4801 17.5799 12.1401 17.9999 12.1401C18.4199 12.1401 18.7599 12.4801 18.7599 12.9001V16.0001C18.7499 16.4201 18.4099 16.7601 17.9999 16.7601Z" fill="#1EB100"/>
<path d="M20.8301 26.01C20.4101 27.17 19.3001 28 18.0001 28C17.2101 28 16.4301 27.68 15.8801 27.11C15.5601 26.81 15.3201 26.41 15.1801 26C15.3101 26.02 15.4401 26.03 15.5801 26.05C15.8101 26.08 16.0501 26.11 16.2901 26.13C16.8601 26.18 17.4401 26.21 18.0201 26.21C18.5901 26.21 19.1601 26.18 19.7201 26.13C19.9301 26.11 20.1401 26.1 20.3401 26.07C20.5001 26.05 20.6601 26.03 20.8301 26.01Z" fill="#1EB100"/>
</svg>