<svg xmlns="http://www.w3.org/2000/svg" width="36" height="36" viewBox="0 0 36 36" fill="none">
<rect width="36" height="36" rx="10" fill="#1EB100" fill-opacity="0.1"/>
<path opacity="0.4" d="M22.0001 8H14.0001C10.0001 8 8.00012 10 8.00012 14V27C8.00012 27.55 8.45012 28 9.00012 28H22.0001C26.0001 28 28.0001 26 28.0001 22V14C28.0001 10 26.0001 8 22.0001 8Z" fill="#1EB100"/>
<path d="M21.4999 17.25H18.7499V14.5C18.7499 14.09 18.4099 13.75 17.9999 13.75C17.5899 13.75 17.2499 14.09 17.2499 14.5V17.25H14.4999C14.0899 17.25 13.7499 17.59 13.7499 18C13.7499 18.41 14.0899 18.75 14.4999 18.75H17.2499V21.5C17.2499 21.91 17.5899 22.25 17.9999 22.25C18.4099 22.25 18.7499 21.91 18.7499 21.5V18.75H21.4999C21.9099 18.75 22.2499 18.41 22.2499 18C22.2499 17.59 21.9099 17.25 21.4999 17.25Z" fill="#1EB100"/>
<path d="M27 13C29.2091 13 31 11.2091 31 9C31 6.79086 29.2091 5 27 5C24.7909 5 23 6.79086 23 9C23 11.2091 24.7909 13 27 13Z" fill="#FA4141" stroke="white" stroke-width="2"/>
</svg>