<svg xmlns="http://www.w3.org/2000/svg" width="36" height="36" viewBox="0 0 36 36" fill="none">
<rect width="36" height="36" rx="10" fill="#0a7bba" fill-opacity="0.1"/>
<path opacity="0.4" d="M18.0001 28.0103C23.5229 28.0103 28.0001 23.5331 28.0001 18.0103C28.0001 12.4874 23.5229 8.01025 18.0001 8.01025C12.4772 8.01025 8.00006 12.4874 8.00006 18.0103C8.00006 23.5331 12.4772 28.0103 18.0001 28.0103Z" fill="#0a7bba"/>
<path d="M18 12.9399C15.93 12.9399 14.25 14.6199 14.25 16.6899C14.25 18.7199 15.84 20.3699 17.95 20.4299C17.98 20.4299 18.02 20.4299 18.04 20.4299C18.06 20.4299 18.09 20.4299 18.11 20.4299C18.12 20.4299 18.13 20.4299 18.13 20.4299C20.15 20.3599 21.74 18.7199 21.75 16.6899C21.75 14.6199 20.07 12.9399 18 12.9399Z" fill="#0a7bba"/>
<path d="M24.78 25.3597C23 26.9997 20.62 28.0097 18 28.0097C15.38 28.0097 13 26.9997 11.22 25.3597C11.46 24.4497 12.11 23.6197 13.06 22.9797C15.79 21.1597 20.23 21.1597 22.94 22.9797C23.9 23.6197 24.54 24.4497 24.78 25.3597Z" fill="#0a7bba"/>
</svg>